<svg xmlns="http://www.w3.org/2000/svg" viewBox="0 0 200 200">
  <style>
    .cat { fill: #5a7d7c; }
    .bg { fill: #f0f5f5; }
    .item { fill: #dadada; }
  </style>
  <rect width="200" height="200" fill="white" />
  <rect class="bg" x="20" y="20" width="160" height="160" rx="10" />
  <rect class="item" x="40" y="40" width="30" height="30" rx="5" />
  <rect class="item" x="80" y="40" width="80" height="10" rx="5" />
  <rect class="item" x="80" y="60" width="60" height="10" rx="5" />
  <path class="cat" d="M100,100 C120,100 135,110 140,125 C142,130 145,140 145,145 C145,165 125,180 100,180 C75,180 55,165 55,145 C55,140 58,130 60,125 C65,110 80,100 100,100 Z" />
  <circle fill="white" cx="85" cy="130" r="5" />
  <circle fill="white" cx="115" cy="130" r="5" />
  <path d="M90,145 Q100,155 110,145" stroke="white" stroke-width="2" fill="none" />
  <path d="M75,115 L65,105 M125,115 L135,105" stroke="#5a7d7c" stroke-width="2" />
</svg>
